<svg width="90" height="90" viewBox="0 0 90 90" fill="none" xmlns="http://www.w3.org/2000/svg">
<rect width="90" height="90" fill="#09090B"/>
<path d="M40.1233 30.6567C37.3616 30.7811 34.6528 31.0835 32.0115 31.389C28.9632 31.7416 26.5254 34.1783 26.1847 37.2279C25.8018 40.6561 25.4323 44.1982 25.4323 47.8221C25.4323 51.4461 25.8018 54.9882 26.1847 58.4164C26.5254 61.4659 28.9632 63.9026 32.0115 64.2552C35.456 64.6536 39.0152 65.0469 42.6569 65.0469C46.2985 65.0469 49.8577 64.6536 53.3022 64.2552C56.3506 63.9026 58.7882 61.4662 59.1291 58.4164C59.4045 55.9505 59.673 53.4255 59.802 50.8535" stroke="white" stroke-width="3.17691" stroke-linecap="round"/>
<path d="M55.1135 27.1384L43.407 40.4215L41.8032 47.9645C41.5452 49.1782 42.8103 50.3267 43.9951 49.9542L51.5015 47.5944L63.5933 34.8711C65.6014 32.7579 65.251 29.2235 62.82 27.0733C60.4462 24.9735 56.9958 25.0026 55.1135 27.1384Z" fill="#4F46E5" stroke="white" stroke-width="3.17691" stroke-linecap="round" stroke-linejoin="round"/>
</svg>
